# xmcd
#
# Track frame offsets:
#	150
#	11996
#	29162
#	46380
#	61209
#	72258
#	85611
#	92407
#	109824
#	121458
#	133742
#	146689
#	161745
#
# Disc length: 2331 seconds
#
# Revision: 1
# Processed by: cddbd v1.5.2PL0 Copyright (c) Steve Scherf et al.
# Submitted via: audiograbber 1.83.01
#
DISCID=b809190d
DTITLE=No Age - Everything In Between
DYEAR=2010
DGENRE=Alternative Rock
TTITLE0=Life Prowler
TTITLE1=Glitter
TTITLE2=Fever Dreaming
TTITLE3=Depletion
TTITLE4=Common Heat
TTITLE5=Skinned
TTITLE6=Katerpillar
TTITLE7=Valley Hump Crash
TTITLE8=Sorts
TTITLE9=Dusted
TTITLE10=Positive Amputation
TTITLE11=Shed And Transcend
TTITLE12=Chem Trails
EXTD=
EXTT0=
EXTT1=
EXTT2=
EXTT3=
EXTT4=
EXTT5=
EXTT6=
EXTT7=
EXTT8=
EXTT9=
EXTT10=
EXTT11=
EXTT12=
PLAYORDER=
